HIERARCHY
ROOT Hips
{
  OFFSET -210.754 77.5408 1208.63
  CHANNELS 6 Xposition Yposition Zposition Zrotation Xrotation Yrotation
  JOINT Spine
  {
    OFFSET 2.9588e-05 8 2.95205e-05
    CHANNELS 6 Xposition Yposition Zposition Zrotation Xrotation Yrotation
    JOINT Spine1
    {
      OFFSET -0.00170992 7.99999 0.00154187
      CHANNELS 6 Xposition Yposition Zposition Zrotation Xrotation Yrotation
      JOINT Spine2
      {
        OFFSET -3.51761e-05 8 -0.000223374
        CHANNELS 6 Xposition Yposition Zposition Zrotation Xrotation Yrotation
        JOINT Spine3
        {
          OFFSET 0 8 0
          CHANNELS 6 Xposition Yposition Zposition Zrotation Xrotation Yrotation
          JOINT Neck
          {
            OFFSET 0.000130324 17 0.000113636
            CHANNELS 6 Xposition Yposition Zposition Zrotation Xrotation Yrotation
            JOINT Head
            {
              OFFSET 4.09497e-05 10.8 6.89911e-05
              CHANNELS 6 Xposition Yposition Zposition Zrotation Xrotation Yrotation
              End Site
              {
                OFFSET 0 20.25 0
              }
            }
          }
          JOINT LeftShoulder
          {
            OFFSET 5.00013 17 0.000157144
            CHANNELS 6 Xposition Yposition Zposition Zrotation Xrotation Yrotation
            JOINT LeftShoulder2
            {
              OFFSET 6.45 0 0
              CHANNELS 6 Xposition Yposition Zposition Zrotation Xrotation Yrotation
              JOINT LeftArm
              {
                OFFSET 6.45 0.00010296 -2.8734e-05
                CHANNELS 6 Xposition Yposition Zposition Zrotation Xrotation Yrotation
                JOINT LeftForeArm
                {
                  OFFSET 4.08457e-05 -32.4 -1.99996
                  CHANNELS 6 Xposition Yposition Zposition Zrotation Xrotation Yrotation
                  JOINT LeftHand
                  {
                    OFFSET -0.00055439 -25.6497 1.99946
                    CHANNELS 6 Xposition Yposition Zposition Zrotation Xrotation Yrotation
                    JOINT LeftHandThumb1
                    {
                      OFFSET -0.499905 -1.49998 2.65001
                      CHANNELS 6 Xposition Yposition Zposition Zrotation Xrotation Yrotation
                      JOINT LeftHandThumb2
                      {
                        OFFSET -3.6001e-05 -3.79921 3.70245
                        CHANNELS 6 Xposition Yposition Zposition Zrotation Xrotation Yrotation
                        JOINT LeftHandThumb3
                        {
                          OFFSET -0.00315364 -2.99728 2.69895
                          CHANNELS 6 Xposition Yposition Zposition Zrotation Xrotation Yrotation
                          End Site
                          {
                            OFFSET 0.00072332 -2.30249 1.79861
                          }
                        }
                      }
                    }
                    JOINT LeftHandIndex
                    {
                      OFFSET 0.000133786 -1.90008 1.59996
                      CHANNELS 6 Xposition Yposition Zposition Zrotation Xrotation Yrotation
                      JOINT LeftHandIndex1
                      {
                        OFFSET 0.00113245 -8.29975 1.89898
                        CHANNELS 6 Xposition Yposition Zposition Zrotation Xrotation Yrotation
                        JOINT LeftHandIndex2
                        {
                          OFFSET -0.000646138 -4.5002 0.000269702
                          CHANNELS 6 Xposition Yposition Zposition Zrotation Xrotation Yrotation
                          JOINT LeftHandIndex3
                          {
                            OFFSET 0.000513095 -3.40122 -0.000388325
                            CHANNELS 6 Xposition Yposition Zposition Zrotation Xrotation Yrotation
                            End Site
                            {
                              OFFSET 0.000307894 -2.59908 -0.000422224
                            }
                          }
                        }
                      }
                    }
                    JOINT LeftHandMiddle
                    {
                      OFFSET -0.243975 -2.20191 0.396689
                      CHANNELS 6 Xposition Yposition Zposition Zrotation Xrotation Yrotation
                      JOINT LeftHandMiddle1
                      {
                        OFFSET -0.000316844 -8.2998 1.0002
                        CHANNELS 6 Xposition Yposition Zposition Zrotation Xrotation Yrotation
                        JOINT LeftHandMiddle2
                        {
                          OFFSET 0.000233882 -4.64989 -0.000112416
                          CHANNELS 6 Xposition Yposition Zposition Zrotation Xrotation Yrotation
                          JOINT LeftHandMiddle3
                          {
                            OFFSET 0.00107022 -3.30083 -0.00093398
                            CHANNELS 6 Xposition Yposition Zposition Zrotation Xrotation Yrotation
                            End Site
                            {
                              OFFSET -0.00151837 -2.70089 0.000577219
                            }
                          }
                        }
                      }
                    }
                    JOINT LeftHandRing
                    {
                      OFFSET -0.501802 -2.14947 -0.799032
                      CHANNELS 6 Xposition Yposition Zposition Zrotation Xrotation Yrotation
                      JOINT LeftHandRing1
                      {
                        OFFSET 0.00700555 -7.75214 -0.203777
                        CHANNELS 6 Xposition Yposition Zposition Zrotation Xrotation Yrotation
                        JOINT LeftHandRing2
                        {
                          OFFSET 0.00279555 -3.80075 -0.00131634
                          CHANNELS 6 Xposition Yposition Zposition Zrotation Xrotation Yrotation
                          JOINT LeftHandRing3
                          {
                            OFFSET -0.00066542 -3.40112 0.000515998
                            CHANNELS 6 Xposition Yposition Zposition Zrotation Xrotation Yrotation
                            End Site
                            {
                              OFFSET -0.000168664 -2.59944 0.000870788
                            }
                          }
                        }
                      }
                    }
                    JOINT LeftHandPinky
                    {
                      OFFSET -0.74304 -1.7504 -1.8548
                      CHANNELS 6 Xposition Yposition Zposition Zrotation Xrotation Yrotation
                      JOINT LeftHandPinky1
                      {
                        OFFSET 0.00181353 -7.15079 -1.00119
                        CHANNELS 6 Xposition Yposition Zposition Zrotation Xrotation Yrotation
                        JOINT LeftHandPinky2
                        {
                          OFFSET -0.00103333 -2.99863 -0.000227552
                          CHANNELS 6 Xposition Yposition Zposition Zrotation Xrotation Yrotation
                          JOINT LeftHandPinky3
                          {
                            OFFSET 0.000331956 -2.3502 -0.000398401
                            CHANNELS 6 Xposition Yposition Zposition Zrotation Xrotation Yrotation
                            End Site
                            {
                              OFFSET 0.00166821 -2.1003 -0.000745755
                            }
                          }
                        }
                      }
                    }
                  }
                }
              }
            }
          }
          JOINT RightShoulder
          {
            OFFSET -4.99987 17.0001 0.000175934
            CHANNELS 6 Xposition Yposition Zposition Zrotation Xrotation Yrotation
            JOINT RightShoulder2
            {
              OFFSET -6.45 0 0
              CHANNELS 6 Xposition Yposition Zposition Zrotation Xrotation Yrotation
              JOINT RightArm
              {
                OFFSET -6.45 -0.000496362 -0.000131148
                CHANNELS 6 Xposition Yposition Zposition Zrotation Xrotation Yrotation
                JOINT RightForeArm
                {
                  OFFSET -0.00186475 -32.3988 -2.00148
                  CHANNELS 6 Xposition Yposition Zposition Zrotation Xrotation Yrotation
                  JOINT RightHand
                  {
                    OFFSET 0.000106747 -25.6504 1.99989
                    CHANNELS 6 Xposition Yposition Zposition Zrotation Xrotation Yrotation
                    JOINT RightHandThumb1
                    {
                      OFFSET 0.500549 -1.50067 2.65003
                      CHANNELS 6 Xposition Yposition Zposition Zrotation Xrotation Yrotation
                      JOINT RightHandThumb2
                      {
                        OFFSET -4.89119e-05 -3.79998 3.70001
                        CHANNELS 6 Xposition Yposition Zposition Zrotation Xrotation Yrotation
                        JOINT RightHandThumb3
                        {
                          OFFSET -6.27559e-05 -2.99991 2.70001
                          CHANNELS 6 Xposition Yposition Zposition Zrotation Xrotation Yrotation
                          End Site
                          {
                            OFFSET 8.13577e-05 -2.30001 1.8
                          }
                        }
                      }
                    }
                    JOINT RightHandIndex
                    {
                      OFFSET -0.00311049 -1.90211 1.60356
                      CHANNELS 6 Xposition Yposition Zposition Zrotation Xrotation Yrotation
                      JOINT RightHandIndex1
                      {
                        OFFSET 0.00170043 -8.29983 1.90055
                        CHANNELS 6 Xposition Yposition Zposition Zrotation Xrotation Yrotation
                        JOINT RightHandIndex2
                        {
                          OFFSET 0.0015142 -4.49946 -0.00203689
                          CHANNELS 6 Xposition Yposition Zposition Zrotation Xrotation Yrotation
                          JOINT RightHandIndex3
                          {
                            OFFSET -0.0016636 -3.40097 -0.000508929
                            CHANNELS 6 Xposition Yposition Zposition Zrotation Xrotation Yrotation
                            End Site
                            {
                              OFFSET -0.00371709 -2.59923 -0.00108278
                            }
                          }
                        }
                      }
                    }
                    JOINT RightHandMiddle
                    {
                      OFFSET 0.249027 -2.20142 0.402208
                      CHANNELS 6 Xposition Yposition Zposition Zrotation Xrotation Yrotation
                      JOINT RightHandMiddle1
                      {
                        OFFSET 0.00125222 -8.29739 0.993876
                        CHANNELS 6 Xposition Yposition Zposition Zrotation Xrotation Yrotation
                        JOINT RightHandMiddle2
                        {
                          OFFSET -0.0047615 -4.64803 -0.000869313
                          CHANNELS 6 Xposition Yposition Zposition Zrotation Xrotation Yrotation
                          JOINT RightHandMiddle3
                          {
                            OFFSET -0.000370511 -3.29938 0.00162925
                            CHANNELS 6 Xposition Yposition Zposition Zrotation Xrotation Yrotation
                            End Site
                            {
                              OFFSET -6.55778e-05 -2.70017 -0.000361971
                            }
                          }
                        }
                      }
                    }
                    JOINT RightHandRing
                    {
                      OFFSET 0.499685 -2.15026 -0.799161
                      CHANNELS 6 Xposition Yposition Zposition Zrotation Xrotation Yrotation
                      JOINT RightHandRing1
                      {
                        OFFSET -0.00110949 -7.75039 -0.197474
                        CHANNELS 6 Xposition Yposition Zposition Zrotation Xrotation Yrotation
                        JOINT RightHandRing2
                        {
                          OFFSET 0.00251762 -3.79912 -0.00471772
                          CHANNELS 6 Xposition Yposition Zposition Zrotation Xrotation Yrotation
                          JOINT RightHandRing3
                          {
                            OFFSET -0.000493876 -3.3998 0.000254159
                            CHANNELS 6 Xposition Yposition Zposition Zrotation Xrotation Yrotation
                            End Site
                            {
                              OFFSET 0.00172235 -2.60305 -0.00526395
                            }
                          }
                        }
                      }
                    }
                    JOINT RightHandPinky
                    {
                      OFFSET 0.749768 -1.75218 -1.84401
                      CHANNELS 6 Xposition Yposition Zposition Zrotation Xrotation Yrotation
                      JOINT RightHandPinky1
                      {
                        OFFSET 0.00546041 -7.14927 -0.998825
                        CHANNELS 6 Xposition Yposition Zposition Zrotation Xrotation Yrotation
                        JOINT RightHandPinky2
                        {
                          OFFSET -0.000333618 -2.99963 0.000248486
                          CHANNELS 6 Xposition Yposition Zposition Zrotation Xrotation Yrotation
                          JOINT RightHandPinky3
                          {
                            OFFSET 0.00474071 -2.35606 -0.012276
                            CHANNELS 6 Xposition Yposition Zposition Zrotation Xrotation Yrotation
                            End Site
                            {
                              OFFSET -0.000144119 -2.10002 5.88967e-05
                            }
                          }
                        }
                      }
                    }
                  }
                }
              }
            }
          }
        }
      }
    }
  }
  JOINT LeftUpLeg
  {
    OFFSET 8.00001 0 4.30804e-05
    CHANNELS 6 Xposition Yposition Zposition Zrotation Xrotation Yrotation
    JOINT LeftLeg
    {
      OFFSET 7.16907e-05 -45 -0.999959
      CHANNELS 6 Xposition Yposition Zposition Zrotation Xrotation Yrotation
      JOINT LeftFoot
      {
        OFFSET -0.000294054 -41 -2.00017
        CHANNELS 6 Xposition Yposition Zposition Zrotation Xrotation Yrotation
        JOINT LeftToeBase
        {
          OFFSET -6.33651e-05 -7.5 12.4999
          CHANNELS 6 Xposition Yposition Zposition Zrotation Xrotation Yrotation
          JOINT LeftFootToe
          {
            OFFSET 0 0 4
            CHANNELS 6 Xposition Yposition Zposition Zrotation Xrotation Yrotation
            End Site
            {
              OFFSET 0 0 0
            }
          }
        }
      }
    }
  }
  JOINT RightUpLeg
  {
    OFFSET -8.00001 0 -4.30804e-05
    CHANNELS 6 Xposition Yposition Zposition Zrotation Xrotation Yrotation
    JOINT RightLeg
    {
      OFFSET 0.000664607 -45.0003 -0.999107
      CHANNELS 6 Xposition Yposition Zposition Zrotation Xrotation Yrotation
      JOINT RightFoot
      {
        OFFSET 0.00251602 -40.9992 -1.99756
        CHANNELS 6 Xposition Yposition Zposition Zrotation Xrotation Yrotation
        JOINT RightToeBase
        {
          OFFSET 0 -7.50001 12.5001
          CHANNELS 6 Xposition Yposition Zposition Zrotation Xrotation Yrotation
          JOINT RightFootToe
          {
            OFFSET 0 0 4
            CHANNELS 6 Xposition Yposition Zposition Zrotation Xrotation Yrotation
            End Site
            {
              OFFSET 0 0 0
            }
          }
        }
      }
    }
  }
}
MOTION
Frames:	3
Frame Time:	0.0111111
-212.153 75.658 1224.89 -8.13665 7.57487 174.424 0 8 0 12.0794 14.6962 -9.59 1.13687e-13 8 0 1.1444 8.30502 2.33638 2.84217e-14 8 -2.27374e-13 0.614303 4.15058 1.18657 1.13687e-13 8 -2.27374e-13 0.612415 4.13742 1.18525 -1.13687e-13 17 0 1.36963 -1.89103 -4.08785 8.52651e-14 10.8 0 2.97589 -4.56895 -9.49036 5 17 2.27374e-13 -7.27303 -1.18655 6.94148 6.45 -1.13687e-13 0 -1.45239 -1.22867 1.38265 6.45 0 2.27374e-13 38.6804 -2.85968 4.48691 -2.84217e-14 -32.4 -2 4.55585 -37.7059 -20.2173 1.13687e-13 -25.65 2 58.5526 -63.3003 23.9819 -0.5 -1.5 2.65 27.0187 -15.3848 -97.401 1.7053e-13 -3.8 3.7 -0.118587 43.2094 0.0176525 -1.13687e-13 -3 2.7 -0.0228757 57.074 0.0179083 -1.27898e-13 -1.9 1.6 1.12465e-05 2.22792e-06 5.9416e-06 0 -8.3 1.9 -0.501928 2.02141 0.0214234 1.42109e-14 -4.5 2.84217e-14 -70.2027 -0.182606 -0.0317782 2.27374e-13 -3.4 -1.42109e-13 -53.9557 -0.101916 -0.165431 -0.25 -2.2 0.4 1.12465e-05 2.22792e-06 5.9416e-06 1.42109e-14 -8.3 1 -3.74162 1.37199 0.411271 -2.41585e-13 -4.65 2.84217e-14 -10.843 -0.0773905 0.0859919 -1.13687e-13 -3.3 -2.84217e-14 -72.099 -0.670005 -0.171236 -0.5 -2.15 -0.8 1.12465e-05 2.22792e-06 5.9416e-06 -1.27898e-13 -7.75 -0.2 -4.76445 15.9536 1.32868 -7.10543e-15 -3.8 0 -29.2804 -0.132545 0.0651187 0 -3.4 5.68434e-14 -90.0038 0.0174292 -3.03075 -0.75 -1.75 -1.85 1.12465e-05 2.22792e-06 5.9416e-06 0 -7.15 -1 -6.1455 20.2755 1.99157 1.42109e-14 -3 0 0.122657 -0.00180063 0.00230426 1.13687e-13 -2.35 -5.68434e-14 0.120055 -0.00379482 0.00232689 -5 17 2.27374e-13 -0.169705 -0.89815 -1.42934 -6.45 -1.13687e-13 2.27374e-13 -1.68457 -0.0725227 -1.40658 -6.45 0 2.27374e-13 -29.3858 -58.1688 20.1661 0 -32.4 -2 -42.7147 -44.3484 -53.4585 2.84217e-14 -25.65 2 -7.55894 22.0533 -23.7286 0.5 -1.5 2.65 -54.156 30.4304 17.4504 2.27374e-13 -3.8 3.7 0.583475 21.9516 0.0572219 0 -3 2.7 0.0388903 49.6498 -0.031511 5.68434e-14 -1.9 1.6 2.41281e-06 -1.49756e-06 -1.04751e-06 0 -8.3 1.9 0.755299 7.38918 -0.074441 5.68434e-14 -4.5 -1.7053e-13 5.28257 14.3214 4.28607 -2.84217e-14 -3.4 -2.27374e-13 27.6354 -0.0415977 0.0158562 0.25 -2.2 0.4 2.41281e-06 -1.49756e-06 -1.04751e-06 5.68434e-14 -8.3 1 12.5476 0.12496 -0.358776 -8.52651e-14 -4.65 -1.13687e-13 1.94418 10.6471 4.32704 2.84217e-14 -3.3 -5.68434e-14 31.6966 0.0568269 -0.0413123 0.5 -2.15 -0.8 2.41281e-06 -1.49756e-06 -1.04751e-06 0 -7.75 -0.2 31.2357 0.203678 -1.27112 1.13687e-13 -3.8 0 1.77899 4.55433 0.460647 0 -3.4 -2.27374e-13 11.165 0.0273168 0.00663896 0.75 -1.75 -1.85 2.41281e-06 -1.49756e-06 -1.04751e-06 0 -7.15 -1 53.5917 -2.22002 -2.47606 0 -3 1.13687e-13 -0.00406322 0.00105481 0.00225152 -1.13687e-13 -2.35 0 -0.0111788 -0.000797629 0.00238194 8 0 -2.27374e-13 -27.9577 -37.0208 -22.5366 0 -45 -1 25.657 30.4651 -13.418 5.68434e-14 -41 -2 -19.0645 13.4208 -19.5665 0 -7.5 12.5 -2.35319e-08 1.82245e-08 1.45335e-10 -1.13687e-13 -1.77636e-15 4 14.8215 -6.83768 93.6754 -8 0 0 -46.6365 -23.5415 -15.66 0 -45 -1 87.757 19.5927 -47.3832 0 -41 -2 -53.469 20.6253 4.32798 -8.52651e-14 -7.5 12.5 -1.48174e-06 -3.71557e-05 3.95065e-06 0 0 4 -15.714 -5.06271 59.4212 
-212.137 75.6577 1224.89 -8.14476 7.58642 174.388 0 8 0 12.0471 14.6964 -9.5959 1.13687e-13 8 0 1.13021 8.29719 2.32561 0 8 2.27374e-13 0.606664 4.14911 1.18197 8.52651e-14 8 -2.27374e-13 0.60502 4.13734 1.1786 -1.42109e-13 17 2.27374e-13 1.3793 -1.86335 -4.06464 1.7053e-13 10.8 -2.27374e-13 3.00362 -4.50454 -9.43621 5 17 0 -7.27665 -1.22346 7.00592 6.45 -1.7053e-13 0 -1.452 -1.22975 1.40131 6.45 -5.68434e-14 -2.27374e-13 39.0962 -2.44754 4.14186 0 -32.4 -2 4.57175 -38.1738 -20.2663 1.13687e-13 -25.65 2 60.0917 -63.4251 25.2933 -0.5 -1.5 2.65 27.1357 -14.2878 -97.3317 5.68434e-14 -3.8 3.7 -0.119785 43.2135 0.0159993 -1.13687e-13 -3 2.7 -0.0247439 56.7248 0.0209026 -1.27898e-13 -1.9 1.6 1.12465e-05 2.22792e-06 5.9416e-06 0 -8.3 1.9 -0.484012 1.64704 0.0205006 -1.42109e-14 -4.5 0 -66.6076 -0.244553 -0.0446362 0 -3.4 -1.13687e-13 -50.0533 -0.131899 -0.210283 -0.25 -2.2 0.4 1.12465e-05 2.22792e-06 5.9416e-06 0 -8.3 1 -3.72909 1.02334 0.396595 -2.27374e-13 -4.65 -2.84217e-14 -7.89376 -0.0956754 0.0957956 -1.13687e-13 -3.3 0 -60.3371 -0.984038 -0.183205 -0.5 -2.15 -0.8 1.12465e-05 2.22792e-06 5.9416e-06 -9.9476e-14 -7.75 -0.2 -4.52938 15.4521 1.25026 -2.13163e-14 -3.8 0 -26.5653 -0.165396 0.0770499 -1.7053e-13 -3.4 0 -90.0038 0.0174292 -3.03171 -0.75 -1.75 -1.85 1.12465e-05 2.22792e-06 5.9416e-06 -1.42109e-14 -7.15 -1 -5.8934 19.8801 1.89588 -1.42109e-14 -3 5.68434e-14 -0.0212529 -0.000938916 0.00130229 1.13687e-13 -2.35 -1.13687e-13 -3.71812e-06 -0.00253391 0.00128149 -5 17 0 0.0836608 -0.891373 -1.15322 -6.45 -5.68434e-14 2.27374e-13 -1.70076 -0.0394539 -1.46754 -6.45 0 0 -31.2844 -58.0114 18.566 0 -32.4 -2 -43.1255 -44.4907 -52.7792 -2.84217e-14 -25.65 2 -6.7537 21.4824 -24.1683 0.5 -1.5 2.65 -54.5455 32.0749 18.6673 2.27374e-13 -3.8 3.7 0.58452 21.863 0.0564691 0 -3 2.7 0.0414732 49.6498 -0.0334584 5.68434e-14 -1.9 1.6 2.41281e-06 -1.49756e-06 -1.04751e-06 5.68434e-14 -8.3 1.9 0.703897 6.97148 -0.0727118 1.13687e-13 -4.5 -2.27374e-13 5.14293 13.584 3.8064 -2.84217e-14 -3.4 -2.27374e-13 26.391 -0.0982783 0.0080087 0.25 -2.2 0.4 2.41281e-06 -1.49756e-06 -1.04751e-06 0 -8.3 1 11.4687 0.124176 -0.361576 -1.13687e-13 -4.65 -1.13687e-13 1.94531 10.8861 4.55076 2.84217e-14 -3.3 0 32.4756 0.063958 -0.0518892 0.5 -2.15 -0.8 2.41281e-06 -1.49756e-06 -1.04751e-06 0 -7.75 -0.2 30.2029 0.278896 -1.25835 1.13687e-13 -3.8 0 1.92276 4.94378 0.543308 0 -3.4 -2.27374e-13 11.8662 0.0508967 -0.00763097 0.75 -1.75 -1.85 2.41281e-06 -1.49756e-06 -1.04751e-06 -1.13687e-13 -7.15 -1 52.2717 -2.05013 -2.43042 -1.13687e-13 -3 1.13687e-13 -0.00195784 0.00590359 0.00118745 0 -2.35 0 9.34563e-06 -0.000300809 0.00124257 8 0 0 -27.9422 -37.0166 -22.531 5.68434e-14 -45 -1 25.6706 30.4756 -13.4126 2.84217e-14 -41 -2 -19.0937 13.3787 -19.5563 0 -7.5 12.5 -2.35319e-08 1.82245e-08 1.45348e-10 -1.13687e-13 0 4 14.81 -6.78467 93.6613 -8 0 2.27374e-13 -46.622 -23.6004 -15.5712 -5.68434e-14 -45 -1 87.7717 19.5794 -47.4046 0 -41 -2 -53.4419 20.6501 4.29857 0 -7.5 12.5 -1.48174e-06 -3.67327e-05 3.95065e-06 -2.84217e-14 -1.13687e-13 4 -15.6975 -5.07225 59.3759 
-212.12 75.6577 1224.88 -8.15576 7.60425 174.352 -1.42109e-14 8 0 12.0102 14.6962 -9.60004 1.13687e-13 8 0 1.11571 8.28772 2.31145 -2.84217e-14 8 -2.27374e-13 0.599032 4.14505 1.17489 1.42109e-13 8 0 0.597127 4.13199 1.17081 -1.7053e-13 17 0 1.38819 -1.83143 -4.03175 1.13687e-13 10.8 0 3.02896 -4.42968 -9.35947 5 17 0 -7.30349 -1.28421 7.07739 6.45 -1.7053e-13 -2.27374e-13 -1.45167 -1.23068 1.41808 6.45 -5.68434e-14 0 39.5884 -2.00804 3.67564 -2.84217e-14 -32.4 -2 4.64472 -38.7258 -20.3743 1.7053e-13 -25.65 2 62.2334 -63.4068 27.1623 -0.5 -1.5 2.65 26.9718 -12.866 -97.106 1.7053e-13 -3.8 3.7 -0.120916 43.4351 0.00974079 -8.52651e-14 -3 2.7 -0.03379 56.1122 0.032424 -1.13687e-13 -1.9 1.6 1.12465e-05 2.22792e-06 5.9416e-06 -1.42109e-14 -8.3 1.9 -0.765649 1.22559 0.0111568 0 -4.5 0 -62.7986 -0.274534 -0.0410157 0 -3.4 -1.42109e-13 -46.166 -0.151418 -0.21076 -0.25 -2.2 0.4 1.12465e-05 2.22792e-06 5.9416e-06 0 -8.3 1 -3.89173 0.641732 0.374495 -2.27374e-13 -4.65 2.84217e-14 -5.38165 -0.0855176 0.0835692 -9.9476e-14 -3.3 -8.52651e-14 -47.335 -1.17614 0.0034679 -0.5 -2.15 -0.8 1.12465e-05 2.22792e-06 5.9416e-06 -1.27898e-13 -7.75 -0.2 -4.33552 14.8984 1.16938 -1.42109e-14 -3.8 0 -24.4508 -0.157676 0.0718829 0 -3.4 5.68434e-14 -90.0038 0.0174292 -3.03268 -0.75 -1.75 -1.85 1.12465e-05 2.22792e-06 5.9416e-06 0 -7.15 -1 -5.61091 19.437 1.78763 7.10543e-15 -3 5.68434e-14 -0.0904413 0.00343801 -0.0035956 1.27898e-13 -2.35 0 -0.0675628 0.00236352 -0.00343706 -5 17 0 0.308511 -0.893336 -0.910011 -6.45 -1.7053e-13 -2.27374e-13 -1.71788 -0.0110908 -1.51996 -6.45 0 0 -33.2257 -57.6574 17.0642 0 -32.4 -2 -43.5194 -44.6292 -52.2039 2.84217e-14 -25.65 2 -5.75021 20.7408 -24.4851 0.5 -1.5 2.65 -55.0624 34.0399 19.606 1.13687e-13 -3.8 3.7 0.585636 21.5994 0.0556606 0 -3 2.7 0.0440513 49.6499 -0.0353927 0 -1.9 1.6 2.41281e-06 -1.49756e-06 -1.04751e-06 0 -8.3 1.9 0.640347 6.27642 -0.0800712 1.13687e-13 -4.5 -1.7053e-13 4.85927 12.2899 2.99189 0 -3.4 -2.27374e-13 24.2555 -0.253514 -0.0140503 0.25 -2.2 0.4 2.41281e-06 -1.49756e-06 -1.04751e-06 -5.68434e-14 -8.3 1 10.4325 0.100234 -0.351602 -1.42109e-13 -4.65 -1.13687e-13 1.94295 11.0716 4.73318 5.68434e-14 -3.3 0 33.1385 0.0588853 -0.0520724 0.5 -2.15 -0.8 2.41281e-06 -1.49756e-06 -1.04751e-06 0 -7.75 -0.2 28.9277 0.302515 -1.22494 1.13687e-13 -3.8 -2.84217e-14 2.19813 5.6991 0.70138 -1.13687e-13 -3.4 -2.27374e-13 13.1454 0.103837 -0.0512449 0.75 -1.75 -1.85 2.41281e-06 -1.49756e-06 -1.04751e-06 0 -7.15 -1 50.1234 -1.82743 -2.33975 0 -3 1.13687e-13 -0.0179236 -0.0326088 0.00299592 0 -2.35 0 -0.0791451 -0.00383728 0.00478189 8 2.84217e-14 -2.27374e-13 -27.928 -37.0101 -22.5116 1.13687e-13 -45 -1 25.6895 30.4909 -13.4122 0 -41 -2 -19.1224 13.3193 -19.5643 0 -7.5 12.5 -2.35319e-08 1.82245e-08 1.45355e-10 -2.27374e-13 0 4 14.7971 -6.71821 93.6464 -8 2.84217e-14 2.27374e-13 -46.6093 -23.6606 -15.4763 0 -45 -1 87.7916 19.5648 -47.4317 0 -41 -2 -53.4179 20.6729 4.26709 0 -7.5 12.5 -1.48174e-06 -3.6309e-05 3.95065e-06 0 0 4 -15.6788 -5.08131 59.33 
